Coordinates
version=1
nRows=7
nColumns=40
inDegrees=yes

Units are S.I. units (second, meters, Newtons, ...)
If the header above contains a line with 'inDegrees', this indicates whether rotational values are in degrees (yes) or radians (no).

endheader
time	pelvis_tilt	pelvis_list	pelvis_rotation	pelvis_tx	pelvis_ty	pelvis_tz	hip_flexion_r	hip_adduction_r	hip_rotation_r	knee_angle_r	knee_angle_r_beta	ankle_angle_r	subtalar_angle_r	mtp_angle_r	hip_flexion_l	hip_adduction_l	hip_rotation_l	knee_angle_l	knee_angle_l_beta	ankle_angle_l	subtalar_angle_l	mtp_angle_l	lumbar_extension	lumbar_bending	lumbar_rotation	arm_flex_r	arm_add_r	arm_rot_r	elbow_flex_r	pro_sup_r	wrist_flex_r	wrist_dev_r	arm_flex_l	arm_add_l	arm_rot_l	elbow_flex_l	pro_sup_l	wrist_flex_l	wrist_dev_l
      4.35000000	    -29.14640149	     11.28653554	      0.28970460	     -0.32992698	      0.82811585	     -1.04045748	     32.12834365	    -17.52247024	     -3.18094673	    114.98938635	      2.00694340	    -22.55050343	      0.00000000	      0.00000000	     73.90758518	      6.56517895	    -17.96385899	     71.53454493	      1.24851334	     27.69094387	      0.00000000	      0.00000000	     -2.28561346	    -22.08229430	     -3.36594608	     89.95540078	     -9.42767999	     10.23016586	     43.88481359	     86.21713551	      0.00000000	      0.00000000	     89.96889995	    -17.74420258	     17.14171840	     51.04627204	     85.36434351	      0.00000000	      0.00000000
      4.35500000	    -29.18826313	     11.32453965	      0.30902551	     -0.32966142	      0.82735175	     -1.04049511	     32.08109906	    -17.39395207	     -3.10516727	    115.01674691	      2.00742093	    -22.54490581	      0.00000000	      0.00000000	     74.04800552	      6.68283138	    -17.84013839	     71.68115450	      1.25107216	     27.74472746	      0.00000000	      0.00000000	     -2.25433079	    -22.06904144	     -3.31316818	     89.95562510	     -9.43256852	     10.19944782	     43.99597450	     86.16736524	      0.00000000	      0.00000000	     89.96897020	    -17.77984562	     17.04659569	     51.12031114	     85.45720934	      0.00000000	      0.00000000
      4.36000000	    -29.23305847	     11.38366410	      0.35588596	     -0.32940342	      0.82662438	     -1.04060776	     32.04345690	    -17.30680924	     -3.04582737	    115.03997810	      2.00782639	    -22.57932922	      0.00000000	      0.00000000	     74.17254587	      6.81457271	    -17.76554258	     71.78406644	      1.25286831	     27.57241306	      0.00000000	      0.00000000	     -2.24302983	    -22.07094176	     -3.28225167	     89.95584236	     -9.44144146	     10.10941905	     44.05236883	     86.21782026	      0.00000000	      0.00000000	     89.96908250	    -17.78611193	     16.97038401	     51.17373450	     85.32173485	      0.00000000	      0.00000000
      4.36500000	    -29.33106914	     11.46854030	      0.43600668	     -0.32925123	      0.82586119	     -1.04082572	     32.06403042	    -17.25366434	     -2.92633666	    115.08578832	      2.00862593	    -22.56531551	      0.00000000	      0.00000000	     74.35613459	      6.99561833	    -17.71327225	     71.87098454	      1.25438532	     27.62283157	      0.00000000	      0.00000000	     -2.17819147	    -22.11177086	     -3.27010614	     89.95608179	     -9.48027517	     10.09746429	     44.13267346	     86.25836520	      0.00000000	      0.00000000	     89.96914331	    -17.76727091	     16.85496742	     51.23750454	     85.31754379	      0.00000000	      0.00000000
      4.37000000	    -29.35161154	     11.62241072	      0.46683964	     -0.32890848	      0.82530230	     -1.04097030	     32.01983259	    -17.32324853	     -2.81720873	    115.13732423	      2.00952540	    -22.51325096	      0.00000000	      0.00000000	     74.40926701	      7.15881448	    -17.79138876	     71.93308122	      1.25546911	     28.01693904	      0.00000000	      0.00000000	     -2.19948683	    -22.21070505	     -3.26561424	     89.95628878	     -9.42527475	      9.99626169	     44.18433443	     86.25762600	      0.00000000	      0.00000000	     89.96925414	    -17.86086821	     16.83219435	     51.36134124	     85.24939764	      0.00000000	      0.00000000
      4.37500000	    -29.41778567	     11.66159092	      0.48397349	     -0.32874041	      0.82447461	     -1.04102021	     32.05830904	    -17.19141840	     -2.72672450	    115.15556160	      2.00984370	    -22.74367742	      0.00000000	      0.00000000	     74.59117988	      7.25526753	    -17.69308442	     72.09437289	      1.25828418	     28.02302711	      0.00000000	      0.00000000	     -2.12760815	    -22.20904029	     -3.10246769	     89.95649229	     -9.57322664	      9.96276405	     44.29629513	     86.25817359	      0.00000000	      0.00000000	     89.96930150	    -17.69574525	     16.64729427	     51.33791232	     85.30308477	      0.00000000	      0.00000000
      4.38000000	    -29.52120386	     11.72680264	      0.54525185	     -0.32854430	      0.82367247	     -1.04119463	     32.09393419	    -17.12928200	     -2.65727814	    115.19525358	      2.01053646	    -22.76944980	      0.00000000	      0.00000000	     74.77580011	      7.39222900	    -17.64339922	     72.20506629	      1.26021614	     28.10483271	      0.00000000	      0.00000000	     -2.05152094	    -22.22312715	     -3.08107083	     89.95679010	     -9.57230094	      9.89230651	     44.40110414	     86.24005014	      0.00000000	      0.00000000	     89.96933177	    -17.64102664	     16.46562336	     51.37252898	     85.37229245	      0.00000000	      0.00000000
